<svg fill="none" xmlns="http://www.w3.org/2000/svg" viewBox="0 0 256 256">
  <path fill-rule="evenodd" clip-rule="evenodd" d="M163 19c2 2.3 3 5.6 5 12.1l43.2 142.3a180.3 180.3 0 0 0-51.7-17.6l-28.2-95.2a3.7 3.7 0 0 0-7 0l-28 95.2a180.2 180.2 0 0 0-52 17.6L88 31c2-6.5 3-9.8 4.9-12.2a16 16 0 0 1 6.5-4.8c2.9-1.1 6.3-1.1 13-1.1h31.1c6.8 0 10.2 0 13.1 1.1A16 16 0 0 1 163 19z" style="fill:#ffffff"/>
  <path fill-rule="evenodd" clip-rule="evenodd" d="M168.2 180.2c-7.1 6-21.4 10.2-37.8 10.2-20.2 0-37-6.3-41.5-14.7-1.6 4.8-2 10.4-2 14 0 0-1 17.3 11 29.3 0-6.2 5.1-11.3 11.4-11.3 10.7 0 10.7 9.4 10.7 17v.6c0 11.6 7 21.5 17 25.7a23.3 23.3 0 0 1-2.3-10.2c0-11 6.5-15.2 14-20 6-3.7 12.6-8 17.2-16.4a31 31 0 0 0 3.8-14.8c0-3.3-.6-6.5-1.5-9.4z" style="fill:#ff5d01"/>
</svg>