<svg fill="none" xmlns="http://www.w3.org/2000/svg" viewBox="0 0 1000 1000">
  <path d="M467.25.27c-2.15.2-8.99.88-15.15 1.37-142.03 12.8-275.07 89.43-359.33 207.2C45.85 274.32 15.84 348.61 4.5 427.28.49 454.75 0 462.86 0 500.1c0 37.24.49 45.35 4.5 72.81 27.17 187.76 160.8 345.5 342.03 403.95 32.45 10.46 66.67 17.6 105.57 21.9 15.15 1.66 80.65 1.66 95.8 0 67.15-7.43 124.05-24.05 180.15-52.69 8.6-4.4 10.27-5.57 9.1-6.55-.79-.58-37.44-49.74-81.43-109.17l-79.96-108-100.2-148.26C420.43 492.57 375.07 425.9 374.68 425.9c-.39-.1-.78 65.78-.98 146.22-.29 140.84-.39 146.5-2.15 149.83-2.54 4.8-4.5 6.75-8.6 8.9-3.13 1.56-5.86 1.85-20.62 1.85h-16.91l-4.5-2.83a18.27 18.27 0 0 1-6.55-7.14l-2.05-4.4.2-195.96.29-196.06 3.03-3.81c1.56-2.05 4.88-4.7 7.23-5.96 4-1.96 5.57-2.15 22.48-2.15 19.94 0 23.27.78 28.45 6.45 1.46 1.56 55.72 83.27 120.62 181.7 64.91 98.41 153.67 232.8 197.27 298.77l79.18 119.93 4-2.64c35.49-23.07 73.02-55.9 102.74-90.12 63.25-72.61 104-161.16 117.7-255.58 4-27.46 4.49-35.57 4.49-72.81s-.49-45.35-4.5-72.82C968.33 239.53 834.7 81.78 653.47 23.34c-31.97-10.37-65.98-17.5-104.1-21.8-9.39-.98-74-2.05-82.12-1.27Zm204.7 302.4c4.69 2.34 8.5 6.84 9.87 11.53.78 2.54.98 56.88.78 179.35l-.3 175.73-30.98-47.5-31.09-47.5V446.54c0-82.59.4-129.02.98-131.26a19.94 19.94 0 0 1 9.68-12.32c4-2.05 5.47-2.25 20.82-2.25 14.47 0 17 .2 20.24 1.96Z" fill="#fff"/>
</svg>