<svg xmlns="http://www.w3.org/2000/svg" viewBox="0 0 256 297">
  <path d="M141.67 0C218.05 0 256 36.35 256 94.41c0 43.43-26.7 71.76-62.79 76.48 30.46 6.14 48.26 23.6 51.54 58.06l.48 6.34.41 5.92.36 5.55.25 4.17.27 4.94.14 2.8.2 4.48.15 4.22.08 2.43.1 3.89.1 4.44.03 2.15.06 6.23.02 6.5v3.88h-78.75v-1.62l.03-3.15.05-3.06.13-7.43.04-2.49.02-3.9v-2.5l-.02-2.61-.04-2.06-.06-2.87-.1-3.05-.12-3.25-.16-3.45-.1-1.81-.16-2.84-.18-2.97-.29-4.2-.25-3.35c-.07-1.03-.15-2.04-.24-3.02l-.2-1.93c-2.6-22.83-11.66-32.16-27.17-35.27l-1.3-.25c-.89-.15-1.79-.29-2.7-.4l-1.4-.17a73.4 73.4 0 0 0-.71-.07l-1.45-.13-1.47-.1-1.5-.08-1.51-.06-1.55-.04-1.57-.02H0V136.9h127.62c2.09 0 4.1-.04 6.07-.12l1.93-.1 1.9-.12 1.84-.15.91-.08 1.79-.2a86.3 86.3 0 0 0 3.44-.47l1.66-.28c20.7-3.76 31.06-14.75 31.06-36.2 0-24.08-16.87-38.67-50.6-38.67H0V0h141.67Zm-58.4 250.79c10.34 0 14.66 5.73 16.2 11.22l.2.8.17.78.11.61.05.31.08.6.05.6.03.28.03.57v.28l.02.54v29.5H0v-46.1h83.28Z" fill="#FFFFFF" fill-rule="nonzero"/>
</svg>