<svg xmlns="http://www.w3.org/2000/svg" viewBox="0 0 107 128">
  <path d="M94.16 22.82c-10.4-14.89-30.94-19.3-45.8-9.84L22.29 29.61A29.92 29.92 0 0 0 8.76 49.65a31.51 31.51 0 0 0 3.11 20.23A30 30 0 0 0 7.4 81.07a31.89 31.89 0 0 0 5.44 24.11c10.4 14.89 30.94 19.3 45.8 9.84l26.08-16.63a29.92 29.92 0 0 0 13.52-20.04 31.53 31.53 0 0 0-3.11-20.23 30 30 0 0 0 4.47-11.19 31.88 31.88 0 0 0-5.44-24.11" style="fill:#ff3e00"/>
  <path d="M45.82 106.58a20.72 20.72 0 0 1-22.24-8.24 19.17 19.17 0 0 1-3.28-14.5 18.19 18.19 0 0 1 .63-2.44l.49-1.5 1.33.98a33.64 33.64 0 0 0 10.2 5.1l.98.3-.1.96a5.85 5.85 0 0 0 1.06 3.88 6.24 6.24 0 0 0 6.7 2.49 5.74 5.74 0 0 0 1.6-.7l26.08-16.63a5.43 5.43 0 0 0 2.45-3.63 5.8 5.8 0 0 0-.99-4.37 6.24 6.24 0 0 0-6.7-2.49 5.74 5.74 0 0 0-1.6.7l-9.95 6.35a19.03 19.03 0 0 1-5.3 2.33 20.72 20.72 0 0 1-22.23-8.25 19.17 19.17 0 0 1-3.28-14.5 17.99 17.99 0 0 1 8.13-12.05l26.08-16.62a19 19 0 0 1 5.3-2.33 20.72 20.72 0 0 1 22.24 8.24 19.17 19.17 0 0 1 3.28 14.5 18.4 18.4 0 0 1-.63 2.44l-.49 1.5-1.33-.98a33.62 33.62 0 0 0-10.2-5.1l-.98-.3.1-.96a5.86 5.86 0 0 0-1.06-3.88 6.24 6.24 0 0 0-6.7-2.49 5.74 5.74 0 0 0-1.6.7L37.73 51.73a5.42 5.42 0 0 0-2.45 3.63 5.79 5.79 0 0 0 .99 4.37 6.24 6.24 0 0 0 6.7 2.49 5.77 5.77 0 0 0 1.6-.7l9.95-6.35a18.98 18.98 0 0 1 5.3-2.33 20.72 20.72 0 0 1 22.23 8.25 19.17 19.17 0 0 1 3.28 14.5 18 18 0 0 1-8.13 12.05l-26.08 16.62a19 19 0 0 1-5.3 2.33" style="fill:#fff"/>
</svg>